<?xml version="1.0" encoding="utf-8"?>
<!-- Uploaded to: SVG Repo, www.svgrepo.com, Generator: SVG Repo Mixer Tools -->
<svg width="800px" height="800px" viewBox="0 0 1024 1024" class="icon"  version="1.1" xmlns="http://www.w3.org/2000/svg"><path d="M818.500072 355.760219H284.184491V783.082855h569.763515V355.760219z" fill="#98C4D8" /><path d="M758.987761 332.01939v-71.220439H189.223223v427.323659h71.220439V332.01939h474.804294z" fill="#98C4D8" /><path d="M794.759243 332.01939H260.443662v427.32366h569.764539V332.01939z" fill="#EFD9A0" /><path d="M735.247956 308.279585v-71.22044H165.483418V664.381781h71.220439V308.279585h474.80327z" fill="#EFD9A0" /><path d="M355.071327 414.779549a21.358248 45.386789 55.515 1 0 74.82234-51.395133 21.358248 45.386789 55.515 1 0-74.82234 51.395133Z" fill="#FEFEFE" /><path d="M309.208504 489.470229a14.239173 24.918297 55.515 1 0 41.079031-28.217004 14.239173 24.918297 55.515 1 0-41.079031 28.217004Z" fill="#FEFEFE" /></svg>